<?xml version="1.0" standalone="no"?>
<!DOCTYPE svg PUBLIC "-//W3C//DTD SVG 20010904//EN"
 "http://www.w3.org/TR/2001/REC-SVG-20010904/DTD/svg10.dtd">
<svg version="1.0" xmlns="http://www.w3.org/2000/svg"
 width="577.000000pt" height="433.000000pt" viewBox="0 0 577.000000 433.000000"
 preserveAspectRatio="xMidYMid meet">

<g transform="translate(0.000000,433.000000) scale(0.100000,-0.100000)"
fill="#000000" stroke="none">
<path d="M2875 3349 c-300 -35 -575 -165 -789 -373 -277 -271 -446 -722 -407
-1089 24 -222 64 -366 147 -527 182 -355 513 -605 934 -707 116 -28 429 -25
567 5 190 42 325 100 509 217 68 44 244 213 307 295 58 77 164 291 200 405 47
150 60 239 60 405 -1 362 -107 649 -338 913 -288 330 -752 508 -1190 456z
m405 -83 c487 -106 840 -417 993 -876 46 -137 60 -235 59 -400 -1 -157 -17
-247 -67 -396 -96 -283 -256 -496 -490 -653 -131 -88 -240 -144 -343 -176
-207 -64 -397 -79 -591 -46 -275 47 -472 142 -686 329 -126 111 -204 214 -280
372 -93 190 -128 349 -127 570 0 181 22 308 79 460 73 196 148 316 278 446
209 208 439 327 733 379 100 18 341 13 442 -9z"/>
<path d="M2918 3243 c-3 -4 -3 -57 0 -116 l4 -108 57 3 c48 3 56 6 56 23 0 15
-6 19 -21 17 -33 -4 -43 18 -46 103 -3 73 -5 80 -25 83 -11 2 -23 0 -25 -5z"/>
<path d="M3067 3168 c-4 -46 -7 -98 -7 -115 l0 -33 55 0 c48 0 55 3 55 19 0
14 -8 21 -27 23 l-28 3 4 93 3 92 -24 0 c-24 0 -25 -3 -31 -82z"/>
<path d="M2817 3233 c-4 -8 7 -124 18 -190 5 -27 10 -33 32 -33 23 0 25 3 20
33 -3 17 -9 55 -12 82 -13 107 -15 115 -35 115 -10 0 -21 -3 -23 -7z"/>
<path d="M2747 3223 c-16 -4 -18 -14 -16 -64 1 -32 0 -61 -2 -63 -2 -3 -18 20
-34 50 -24 45 -33 53 -50 48 -11 -4 -22 -8 -25 -11 -3 -3 86 -181 105 -210 0
-1 18 3 38 9 l37 11 -6 86 c-6 108 -13 151 -22 150 -4 -1 -15 -3 -25 -6z"/>
<path d="M3250 3119 c-41 -80 -49 -103 -39 -110 23 -14 35 -10 47 16 6 14 19
25 28 25 13 0 15 -7 10 -35 -6 -31 -4 -36 16 -44 22 -8 24 -5 45 98 12 58 22
111 23 118 0 10 -49 33 -71 33 -4 0 -31 -46 -59 -101z m59 -23 c-9 -8 -10 -7
-5 7 3 10 7 24 7 30 1 7 3 4 6 -7 3 -10 -1 -23 -8 -30z"/>
<path d="M2391 3074 c-12 -15 -21 -41 -21 -58 0 -35 31 -92 63 -118 23 -19 83
-24 105 -9 21 13 10 46 -13 44 -37 -5 -60 6 -78 36 -21 36 -22 77 -2 89 20 11
9 42 -15 42 -10 0 -28 -12 -39 -26z"/>
<path d="M3584 3038 c-113 -120 -111 -118 -90 -134 18 -12 22 -12 41 6 32 30
57 17 49 -25 -5 -27 -2 -35 14 -44 18 -9 22 -6 37 32 17 40 65 177 65 183 0 4
-57 34 -62 34 -2 0 -26 -24 -54 -52z m41 -57 c-3 -12 -13 -21 -21 -21 -12 0
-12 4 3 24 21 28 28 26 18 -3z"/>
<path d="M3727 2903 l-88 -77 20 -20 21 -20 30 29 c34 32 37 28 14 -17 -24
-46 -4 -58 40 -25 48 37 53 34 17 -12 -30 -37 -30 -39 -12 -55 18 -16 22 -13
94 71 41 48 73 93 70 100 -10 26 -42 35 -65 18 -34 -23 -41 -18 -21 15 19 32
11 62 -18 67 -8 2 -54 -32 -102 -74z"/>
<path d="M2583 2954 c-8 -20 8 -36 26 -25 15 10 8 41 -9 41 -6 0 -13 -7 -17
-16z"/>
<path d="M2150 2876 c-14 -8 -35 -28 -47 -44 l-23 -31 89 -70 c49 -39 91 -71
95 -71 3 0 17 17 31 37 47 69 24 148 -51 179 -41 17 -62 17 -94 0z m77 -56
c30 -18 53 -63 39 -77 -6 -6 -78 40 -98 64 -9 11 -9 16 3 24 19 12 19 12 56
-11z"/>
<path d="M2360 2815 c-10 -11 -10 -19 -2 -27 15 -15 44 -2 40 19 -4 23 -22 27
-38 8z"/>
<path d="M3899 2750 c-46 -39 -85 -76 -86 -83 -1 -7 11 -27 27 -46 24 -29 32
-32 44 -22 13 11 14 15 1 35 -14 21 -13 24 4 40 16 15 22 15 40 4 28 -17 51 3
31 27 -11 13 -11 19 3 32 15 15 18 15 34 1 19 -17 43 -14 43 5 -1 7 -13 27
-29 45 l-28 33 -84 -71z"/>
<path d="M4055 2666 c-11 -8 -53 -35 -92 -61 l-73 -47 21 -39 c22 -43 44 -58
61 -41 9 9 8 18 -1 36 -8 13 -10 29 -7 35 4 6 38 29 77 52 47 28 69 47 67 58
-4 21 -28 24 -53 7z"/>
<path d="M2975 2622 c-75 -83 -176 -114 -302 -93 -88 16 -160 49 -205 95 -19
20 -37 36 -40 36 -5 0 -8 -56 -28 -490 -11 -224 -6 -272 37 -405 52 -160 134
-288 277 -430 94 -93 233 -195 267 -195 68 0 244 116 365 241 130 135 189 241
237 424 38 143 47 251 47 579 l0 289 -22 -19 c-88 -77 -184 -116 -288 -115
-107 1 -198 33 -268 95 l-37 32 -40 -44z m131 -252 c-3 -85 -8 -339 -11 -565
-3 -225 -8 -446 -11 -491 l-6 -81 -45 -22 -45 -22 -44 26 c-41 24 -44 29 -44
68 0 24 4 202 10 397 5 195 12 465 15 599 6 230 7 246 26 259 11 8 32 24 47
37 l26 23 44 -37 43 -36 -5 -155z m-423 110 c38 -4 70 -10 71 -12 4 -7 -15
-891 -22 -978 l-7 -94 -71 89 c-111 140 -102 104 -93 390 17 578 20 627 38
620 8 -3 46 -10 84 -15z m773 -367 c-4 -214 -9 -421 -12 -461 l-6 -74 -80 -99
c-44 -55 -85 -98 -90 -97 -12 4 -11 286 2 658 5 140 10 299 10 353 l0 98 34
-4 c19 -2 54 0 78 3 24 4 49 8 57 9 11 1 12 -63 7 -386z"/>
<path d="M1956 2614 c-14 -26 -26 -52 -26 -59 0 -7 42 -36 93 -64 83 -45 93
-48 105 -33 18 24 15 31 -23 49 -35 17 -44 40 -24 60 6 6 8 16 5 22 -12 19
-35 12 -49 -14 -11 -23 -15 -24 -32 -12 -16 13 -17 18 -6 45 13 30 9 52 -9 52
-4 0 -20 -21 -34 -46z"/>
<path d="M2164 2595 c-9 -23 14 -45 26 -25 5 8 8 19 7 24 -6 17 -27 18 -33 1z"/>
<path d="M4068 2492 c-59 -26 -108 -50 -108 -53 0 -3 6 -13 13 -23 13 -17 19
-16 117 26 57 24 105 49 107 54 2 5 -2 17 -9 26 -12 16 -22 13 -120 -30z"/>
<path d="M2053 2374 c-6 -17 15 -37 29 -28 13 9 9 32 -7 38 -9 3 -18 -1 -22
-10z"/>
<path d="M3994 2354 c3 -9 6 -19 6 -24 0 -5 10 -10 23 -12 27 -4 37 -47 13
-60 -18 -10 -20 -26 -7 -46 6 -10 32 -1 115 39 95 45 107 54 102 73 -3 11 -6
27 -6 34 0 9 -32 12 -126 12 -111 0 -125 -2 -120 -16z m171 -32 c-13 -11 -65
-33 -65 -28 0 3 -3 11 -6 20 -5 13 2 16 37 16 24 0 39 -4 34 -8z"/>
<path d="M1826 2352 c-2 -4 -7 -24 -11 -44 -6 -29 -3 -40 14 -57 31 -31 66
-26 108 14 48 47 68 43 67 -12 0 -29 4 -44 14 -48 22 -8 33 7 39 51 4 30 0 45
-17 67 -32 40 -77 37 -119 -9 -37 -40 -57 -40 -53 1 4 33 -27 60 -42 37z"/>
<path d="M1893 1913 c-19 -7 -16 -50 3 -57 22 -9 46 13 42 38 -3 21 -22 29
-45 19z"/>
<path d="M4120 1845 c-25 -30 15 -70 45 -45 8 7 15 23 15 36 0 19 -5 24 -24
24 -13 0 -29 -7 -36 -15z"/>
<path d="M3906 1534 c-28 -27 -38 -55 -31 -82 8 -34 33 -62 55 -62 9 0 21 -14
29 -35 29 -81 122 -81 161 0 32 67 7 129 -57 141 -21 4 -48 18 -60 30 -26 28
-74 32 -97 8z m48 -40 c23 -9 20 -44 -3 -44 -23 0 -35 15 -27 35 6 17 8 17 30
9z m114 -102 c3 -16 -2 -22 -17 -22 -24 0 -35 15 -27 36 9 23 40 13 44 -14z"/>
<path d="M2046 1486 c-108 -66 -109 -68 -93 -90 13 -17 15 -17 46 -1 30 15 34
15 50 1 32 -29 61 -13 41 23 -8 16 -6 23 12 36 22 15 24 14 41 -6 16 -20 19
-21 34 -7 14 15 13 20 -8 57 -12 23 -25 41 -28 41 -3 -1 -46 -25 -95 -54z"/>
<path d="M2138 1367 c-86 -64 -109 -116 -68 -157 30 -30 61 -25 126 20 94 63
96 66 89 89 -9 30 -22 26 -89 -24 -61 -46 -86 -55 -86 -32 0 19 40 54 128 112
1 1 0 10 -4 19 -10 25 -34 18 -96 -27z"/>
<path d="M3782 1387 c-26 -27 -29 -69 -7 -87 17 -14 17 -15 33 23 6 15 18 27
25 27 28 0 37 -25 37 -99 0 -59 5 -84 21 -110 l20 -33 26 23 c14 13 39 41 55
62 29 37 30 38 12 58 -17 19 -18 19 -51 -13 l-33 -32 0 71 c0 62 -3 75 -26
102 -33 39 -80 42 -112 8z"/>
<path d="M3690 1283 c-37 -14 -60 -47 -60 -88 0 -72 58 -118 120 -97 37 13 40
-1 8 -35 -20 -21 -20 -25 -6 -39 36 -36 88 19 88 93 0 90 -89 188 -150 166z
m56 -78 c19 -30 12 -55 -15 -55 -29 0 -57 45 -41 65 18 22 37 18 56 -10z"/>
<path d="M2243 1217 c-80 -70 -90 -84 -69 -105 12 -13 21 -8 65 33 28 26 51
45 51 42 0 -4 -12 -36 -27 -73 -27 -64 -27 -66 -8 -80 10 -8 24 -14 29 -13 16
1 136 155 136 174 0 31 -31 28 -60 -6 -34 -39 -35 -37 -16 19 13 37 13 42 -3
56 -10 9 -19 16 -22 16 -2 0 -36 -28 -76 -63z"/>
<path d="M3539 1159 c-26 -26 -22 -65 7 -62 16 2 28 -13 57 -65 20 -37 42 -75
49 -85 13 -18 15 -18 36 0 l23 18 -63 107 c-35 59 -69 107 -75 108 -7 0 -22
-9 -34 -21z"/>
<path d="M2394 1079 l-68 -92 29 -24 c17 -13 40 -26 53 -29 54 -14 112 24 138
91 14 37 15 49 4 75 -10 25 -64 70 -83 70 -3 0 -36 -41 -73 -91z m106 -4 c0
-31 -50 -88 -73 -84 -16 4 -13 10 15 49 28 39 47 59 56 60 1 0 2 -11 2 -25z"/>
<path d="M2554 989 c-66 -97 -68 -101 -50 -115 27 -19 32 -18 52 15 12 20 22
27 36 23 17 -4 19 -10 13 -40 -7 -36 4 -52 36 -52 12 0 20 22 33 103 10 56 20
109 22 118 3 10 -8 21 -31 32 -20 9 -37 17 -39 17 -2 0 -34 -45 -72 -101z m76
-4 c-6 -15 -13 -25 -17 -21 -3 3 0 17 7 31 17 32 24 26 10 -10z"/>
<path d="M3378 1075 c-4 -4 -1 -27 7 -51 7 -24 12 -44 10 -44 -1 0 -14 18 -29
40 -25 39 -48 48 -73 32 -10 -6 -6 -36 17 -126 16 -65 31 -120 32 -122 2 -2
14 -1 27 3 19 5 22 11 17 32 -3 14 -9 42 -12 61 -5 35 -5 34 28 -17 36 -57 42
-61 75 -38 l22 16 -38 107 c-29 81 -43 108 -58 110 -10 2 -22 0 -25 -3z"/>
<path d="M2731 1013 c-37 -142 -51 -206 -47 -211 3 -3 28 -7 56 -10 59 -5 82
9 111 73 34 74 18 144 -37 166 -66 25 -72 23 -83 -18z m77 -65 c4 -45 -21
-108 -44 -108 -17 0 -16 25 7 113 12 47 33 44 37 -5z"/>
<path d="M3168 1023 c-21 -3 -28 -10 -28 -26 0 -32 29 -220 35 -225 3 -3 30 0
60 7 47 11 55 16 55 35 0 20 -5 23 -37 22 -34 -1 -38 2 -38 24 0 17 7 26 25
30 16 4 25 13 25 25 0 16 -6 20 -32 17 -29 -2 -33 1 -33 22 0 19 7 26 31 31
21 5 29 11 25 22 -3 8 -6 17 -6 19 0 5 -41 3 -82 -3z"/>
<path d="M2915 998 c-14 -42 -53 -213 -50 -219 3 -3 14 -9 25 -12 16 -4 23 1
30 19 12 31 47 32 52 2 2 -17 11 -24 31 -26 33 -4 33 -1 11 144 l-17 104 -39
0 c-22 0 -40 -5 -43 -12z m41 -136 c-13 -13 -17 9 -10 50 l9 43 3 -44 c2 -23
1 -46 -2 -49z"/>
</g>
</svg>
